<svg width="24" height="24" viewBox="0 0 24 24" fill="none" xmlns="http://www.w3.org/2000/svg">
  <path d="M16.7381 2.21802C15.7802 2.28302 14.6581 2.86918 13.9638 3.63632C13.331 4.33201 12.8586 5.33864 13.0086 6.31937C13.9893 6.35099 15.0037 5.77028 15.6728 4.98651C16.3206 4.23338 16.7532 3.24929 16.7381 2.21802Z" fill="currentColor"/>
  <path d="M20.7882 8.57529C19.8908 7.4599 18.6381 6.84021 17.4506 6.84021C15.8788 6.84021 15.2006 7.58396 14.052 7.58396C12.8749 7.58396 12.0104 6.84182 10.6014 6.84182C9.21594 6.84182 7.7306 7.6715 6.82663 9.07639C5.56 11.0733 5.78594 14.9333 8.06008 18.4547C8.83822 19.6503 9.90266 20.9832 11.2846 20.9983C12.4215 21.016 12.7445 20.2645 14.0774 20.2583C15.4103 20.2515 15.7032 21.0131 16.8401 20.9943C18.2237 20.9792 19.3674 19.4672 20.1455 18.2716C20.6725 17.4458 20.8671 17.0478 21.2727 16.1283C18.3783 15.0199 17.9102 10.9975 20.7882 8.57529Z" fill="currentColor"/>
</svg>

