<svg width="24" height="24" viewBox="0 0 24 24" fill="none" xmlns="http://www.w3.org/2000/svg">
  <path d="M23 12.2727C23 11.3738 22.9265 10.7444 22.767 10.0909H12.24V13.9315H18.2324C18.1118 14.9299 17.4618 16.4419 16.0099 17.4501L15.9897 17.5827L19.2469 20.1307L19.4725 20.1527C21.6 18.191 23 15.4546 23 12.2727Z" fill="#4285F4"/>
  <path d="M12.24 23C15.1529 23 17.5843 22.0455 19.4725 20.1527L16.0099 17.4501C15.0396 18.1219 13.7407 18.573 12.24 18.573C9.39618 18.573 6.98542 16.6113 6.12557 14.0015L5.99881 14.0124L2.61489 16.6526L2.57062 16.777C4.44744 20.2354 8.06276 23 12.24 23Z" fill="#34A853"/>
  <path d="M6.12557 14.0015C5.89995 13.348 5.76942 12.6533 5.76942 11.9442C5.76942 11.235 5.89995 10.5404 6.11374 9.88686L6.10714 9.74477L2.68239 7.06229L2.57061 7.11118C1.85608 8.50077 1.45306 10.032 1.45306 11.6443C1.45306 13.2566 1.85608 14.7879 2.57061 16.1775L6.12557 14.0015Z" fill="#FBBC05"/>
  <path d="M12.24 5.31543C14.2285 5.31543 15.5708 6.15012 16.3267 6.86128L19.5429 3.73154C17.5722 1.92326 15.1529 1 12.24 1C8.06276 1 4.44744 3.76461 2.57062 7.223L6.11375 9.88688C6.98542 7.27702 9.39618 5.31543 12.24 5.31543Z" fill="#EB4335"/>
</svg>

